<svg width="520" height="779" viewBox="0 0 520 779" fill="none" xmlns="http://www.w3.org/2000/svg">
<path  fill-rule="evenodd" clip-rule="evenodd" d="M284.711 0.381714C277.532 0.974188 269.657 3.05951 264.192 5.81428C262.762 6.53738 260.917 7.05521 258.869 7.31179C238.167 9.90795 224.75 23.3739 223.544 42.7669L223.311 46.506L220.621 47.9592C189.036 65.0173 176.571 94.0299 189.81 119.665C191.04 122.042 191.406 123.115 191.152 123.591C186.596 132.1 189.824 149.291 198.145 160.821C200.974 164.742 201.506 166.979 201.121 173.328C200.228 188.103 205.01 198.977 212.408 199C213.484 199.003 213.675 199.166 213.911 200.267C215.089 205.793 220.773 218.039 225.424 225.067L228.501 229.718L228.391 234.031L228.282 238.346L224.589 240.464C215.182 245.862 205.392 253.207 196.402 261.609L193.683 264.154L189.405 265.045C159.914 271.193 125.886 283.705 106.216 295.634C93.1883 303.535 82.778 312.16 83.2491 314.666C83.4404 315.69 83.2095 316.175 81.677 317.969C67.0378 335.122 53.2173 362.278 42.2145 395.522C39.1495 404.785 32.1518 429.029 32.1518 430.387C32.1518 430.776 31.9769 431.094 31.7623 431.094C31.5477 431.094 31.3727 431.607 31.3727 432.232C31.3727 433.207 28.555 446.491 27.489 450.533C27.0738 452.115 24.9721 463.372 22.8075 475.609C21.9771 480.311 20.5029 490.108 19.5326 497.378C18.5622 504.649 17.6875 510.952 17.5872 511.388C16.8641 514.525 13.6638 552.222 12.7611 568.228C12.1686 578.757 11.6065 587.43 11.5178 587.5C11.4269 587.57 10.3679 588.097 9.16662 588.673C2.90366 591.67 0.00193006 598.37 0.377474 608.953C0.566413 614.198 4.40584 640.232 5.31787 642.444C5.76573 643.528 10.3002 645.793 13.3979 646.479L15.7981 647.013L15.9871 648.588C16.092 649.453 16.2786 653.225 16.4023 656.966C17.4799 689.718 24.3423 742.607 31.417 772.72L32.6276 777.87H34.3327C36.4017 777.87 36.3528 778.414 35.0792 769.79C34.552 766.217 33.0615 755.419 31.7669 745.798C26.3227 705.346 21.4826 672.807 18.1797 654.438C17.5242 650.804 16.9901 647.741 16.9901 647.636C16.9901 647.529 19.8078 647.503 23.253 647.58C41.7573 647.99 65.7012 640.351 92.9713 625.336C95.5278 623.93 97.6831 622.845 97.7671 622.927C98.7957 623.958 91.4388 676.238 86.9626 699.708C82.708 722.01 75.7313 769.986 75.6963 777.189C75.6916 777.831 77.0562 777.87 98.931 777.87H122.17L122.84 773.303C125.256 756.777 133.248 732.71 144.88 706.921C151.288 692.715 163.179 669.41 166.403 664.741C180.249 644.683 185.365 628.502 185.871 603.165C186.19 587.078 185.127 579.002 179.489 554.72C171.756 521.42 165.591 480.033 162.986 443.923C161.39 421.829 161.141 414.759 161.019 388.331C160.898 361.611 161.073 354.018 162.179 337.791C163.021 325.407 163.084 324.99 164.084 324.782C187.151 319.989 205.527 308.615 217.169 291.918L219.203 289.003L218.937 294.055C218.625 299.987 219.161 307.11 220.509 314.978C224.06 335.675 224.857 344.735 225.758 374.529C227.579 434.823 222.14 497.483 210.552 549.668C205.259 573.5 196.803 602.384 191.278 615.502C166.23 674.962 151.386 730.622 149.709 771.358L149.441 777.87H194.79C239.182 777.87 240.138 777.854 240.138 777.126C240.138 776.718 240.999 772.389 242.048 767.504C243.098 762.622 244.418 756.089 244.98 752.989C245.543 749.889 246.091 747.055 246.2 746.691C246.375 746.105 246.844 746.054 250.224 746.248L254.05 746.467L255.435 743.994C256.198 742.635 257.313 740.936 257.91 740.223L259.002 738.921L265.605 739.579C269.239 739.941 273.785 740.283 275.71 740.339C277.634 740.398 282.708 740.645 286.985 740.89C301.891 741.744 300.864 741.48 302.308 744.837L303.124 746.735L306.523 747.755L309.922 748.774L309.852 763.224C309.812 771.316 309.919 777.112 310.097 776.394C310.561 774.514 310.862 774.451 310.614 776.284L310.402 777.87H381.616H452.827L452.621 776.606C451.695 770.931 448.878 741.529 447.749 725.777C446.165 703.655 445.066 679.963 444.073 646.414L443.881 639.943L445.712 639.162C451.434 636.724 462.519 635.87 476.894 636.761C488.669 637.492 509.163 640.057 509.163 640.801C509.163 641.044 508.55 645.786 507.803 651.34C505.342 669.62 502.319 697.658 498.876 734.135C498.13 742.047 496.903 754.955 496.15 762.823C495.394 770.688 494.778 777.294 494.778 777.497C494.778 778.74 497.099 777.803 497.463 776.413C504.325 750.309 510.53 686.511 509.884 648.725L509.746 640.68L511.883 640.736C518.202 640.902 520.478 632.49 519.909 611.091C519.44 593.511 515.799 583.352 508.843 580.215L507.344 579.541L507.523 565.867C508.743 472.453 489.443 382.907 457.385 333.249C455.376 330.142 455.11 329.512 455.325 328.374C455.955 325.011 444.506 313.688 430.854 304.174C415.998 293.819 391.734 281.8 370.762 274.401C367.135 273.12 366.988 273.018 362.374 268.604C356.582 263.06 351.546 258.952 346.466 255.619C344.327 254.217 342.267 252.843 341.89 252.57C341.236 252.094 341.234 251.889 341.859 248.376L342.515 244.684L346.268 240.793C361.308 225.207 370.279 201.412 370.963 175.29L371.131 168.875L370.461 171.534C369.475 175.448 367.107 176.323 358.46 175.966C346.914 175.49 320.442 164.154 311.391 155.813C306.521 151.325 299.362 150.345 293.561 153.375C272.953 164.135 262.955 167.539 247.381 169.094C240.57 169.776 226.814 169.377 220.92 168.327C218.368 167.874 216.152 167.637 215.998 167.8C215.543 168.276 214.872 174.774 214.862 178.789L214.853 182.481L214.095 181.508C213.677 180.974 212.8 179.54 212.145 178.32C210.881 175.962 210.255 175.763 209.479 177.466C208.219 180.23 211.009 183.911 213.939 183.351C214.608 183.223 214.872 183.349 214.879 183.799C214.883 184.142 215.128 186.262 215.427 188.506C216.05 193.218 216.143 192.978 213.696 192.978C209.059 192.978 206.761 187.072 206.509 174.511C206.414 169.794 206.173 167.224 205.595 164.793C201.856 149.048 205.6 138.032 210.972 148.974C212.147 151.374 214.034 158.71 214.139 161.294C214.169 162.041 214.424 159.417 214.704 155.463C216.544 129.49 219.761 117.23 226.882 109.059C235.291 99.4111 239.296 86.0618 236.581 76.7385C234.134 68.3412 238.822 63.1606 246.66 65.6005L248.974 66.3212L249.958 64.3176C254.318 55.4235 262.37 53.4781 273.16 58.7124C295.229 69.4142 324.894 76.5333 345.512 76.0761L353.573 75.8988L354.938 78.2617C363.023 92.2688 366.666 110.094 369.766 150.798C370.65 162.391 371.005 166.575 371.205 167.765C371.481 169.391 380.081 164.091 383.997 159.885C392.329 150.935 397.778 134.78 395.576 125.564C395.501 125.256 395.914 124.901 396.558 124.72C399.784 123.81 404.342 118.331 406.807 112.397L407.621 110.442L405.035 111.207C399.126 112.954 397.479 111.095 397.062 102.201C396.357 87.2328 391.063 70.2376 383.407 58.3835L381.595 55.5797L382.616 51.5794C383.409 48.4677 383.68 46.2844 383.834 41.7499L384.032 35.9185L381.982 38.1974C380.855 39.45 378.828 41.414 377.478 42.5593L375.024 44.64L371.942 41.2041C354.623 21.888 326.849 5.52504 304.559 1.50835C300.785 0.82724 290.834 -0.133779 289.122 0.0155055C288.803 0.0434964 286.818 0.209104 284.711 0.381714ZM252.746 110.551C247.35 111.727 241.999 114.71 237.77 118.904C233.705 122.937 233.616 123.493 237.309 121.795C252.897 114.627 263.182 114.141 277.228 119.912C283.452 122.469 283.3 122.45 281.749 120.488C275.411 112.485 263.154 108.287 252.746 110.551ZM331.568 116.175C327.25 117.237 318.746 121.846 319.576 122.676C319.669 122.77 321.384 122.541 323.385 122.17C337.054 119.63 348.838 121.864 358.735 128.872C362.591 131.601 362.759 131.542 360.961 128.109C355.859 118.361 343.347 113.283 331.568 116.175ZM261.703 133.677C260.476 134.166 259.844 135.155 259.883 136.52C259.951 138.857 262.965 140.024 264.63 138.356C266.657 136.329 264.336 132.62 261.703 133.677ZM333.229 140.866C331.479 142.617 332.737 145.743 335.19 145.743C336.781 145.743 338.248 144.026 337.955 142.51C337.472 140.012 334.959 139.137 333.229 140.866ZM207.699 159.057C205.404 161.357 205.567 165.288 208.063 167.781C209.929 169.65 210.265 169.479 209.915 166.834C209.754 165.605 209.626 163.067 209.63 161.196C209.642 157.408 209.502 157.252 207.699 159.057ZM372.838 166.2C372.173 167.072 371.702 167.415 371.597 167.102C371.504 166.825 371.935 166.19 372.554 165.696C374.063 164.49 374.098 164.551 372.838 166.2ZM241.5 243.259C252.711 252.636 273.384 261.551 280.907 260.254C282.008 260.065 282.19 260.107 281.737 260.45C281.243 260.823 281.264 260.856 281.858 260.662C282.246 260.536 285.045 260.639 288.079 260.888C304.599 262.25 323.068 258 335.032 250.086C336.616 249.039 338.122 248.047 338.381 247.882C338.64 247.714 338.442 248.502 337.945 249.629C331.444 264.352 329.839 284.118 333.884 299.609C335.006 303.901 333.847 308.942 329.063 320.607C326.812 326.098 327.533 325.517 319.791 328.076C286.866 338.955 263.328 336.114 243.054 318.813L240.332 316.49L238.641 309.55C237.106 303.252 236.66 302.021 233.828 296.292L230.705 289.973L231.745 286.829C236.065 273.757 236.072 251.546 231.762 234.626C231.529 233.709 232.06 234.117 234.74 236.921C236.534 238.796 239.576 241.649 241.5 243.259ZM351.336 313.101C364.854 331.218 384.244 343.018 404.703 345.579C407.871 345.976 408.478 346.16 408.286 346.659C406.189 352.122 389.266 420.569 381.69 454.226C362.981 537.338 348.684 621.866 347.798 654.592C347.775 655.464 347.691 655.389 347.189 654.05C344.364 646.495 339.373 603.347 337.724 572.214C337.514 568.258 337.243 563.185 337.124 560.941C334.934 520.074 335.494 448.143 338.498 384.638C340.369 345.099 340.541 342.323 341.449 337.236C342.825 329.517 343.611 320.947 343.826 311.272L344.047 301.277L346.534 305.636C347.901 308.034 350.063 311.393 351.336 313.101ZM248.304 327.026C267.105 344.408 298.137 345.052 324.022 328.596L326.072 327.294L325.347 328.752C324.95 329.554 323.516 333.009 322.161 336.431C320.803 339.853 319.508 342.778 319.28 342.929C318.279 343.601 306.801 347.154 302.73 348.054C289.831 350.9 275.745 350.38 263.27 346.592C255.689 344.292 245.193 339.694 245.193 338.675C245.193 338.201 241.901 323.023 241.08 319.713C240.847 318.771 241.237 319.107 243.117 321.463C244.395 323.068 246.73 325.57 248.304 327.026ZM248.017 342.671C265.374 358.275 294.867 360.328 315.165 347.343C316.98 346.183 318.505 345.274 318.557 345.325C318.606 345.376 316.884 350.13 314.727 355.892C300.134 394.874 285.586 441.651 278.868 471.188L278.635 472.21L277.035 471.419C274.877 470.351 272.223 470.148 270.088 470.89C267.921 471.643 268.227 472.245 267.128 465.047C259.676 416.154 253.13 377.822 246.977 347.025C246.303 343.657 245.82 340.902 245.902 340.902C245.983 340.902 246.935 341.698 248.017 342.671ZM336.394 362.964C334.344 376.12 330.609 435.358 330.126 462.39C330.012 468.804 329.821 476.003 329.7 478.384L329.483 482.716L326.6 480.647C321.466 476.964 314.874 474.927 307.881 474.867C305.476 474.848 303.507 474.755 303.507 474.659C303.507 474.566 304.188 472.205 305.021 469.411C305.854 466.619 307.244 461.884 308.112 458.891C308.982 455.898 311.09 448.637 312.802 442.757C314.514 436.879 317.659 426.03 319.791 418.654C321.923 411.279 325.412 399.205 327.547 391.83C329.679 384.454 332.52 374.613 333.856 369.962C336.224 361.728 336.858 359.981 336.394 362.964ZM233.126 401.937C234.827 414.446 237.36 433.601 238.759 444.506C240.159 455.411 241.556 466.253 241.866 468.599C242.522 473.561 242.634 473.171 240.7 472.635C238.442 472.009 232.982 472.443 230.295 473.465C227.493 474.529 227.719 475.235 228.305 467.249C230.306 439.867 230.453 404.241 228.678 376.598C228.354 371.534 228.107 367.16 228.13 366.878C228.195 366.129 229.641 376.285 233.126 401.937ZM501.776 579.795C501.776 580.525 501.428 580.528 499.779 579.812L498.471 579.242L500.124 579.228C501.34 579.217 501.776 579.366 501.776 579.795ZM100.713 588.738C100.132 598.057 98.3222 620.188 98.0376 621.474C97.2516 625.003 57.4439 639.642 40.5094 642.63C28.464 644.757 9.22026 643.006 9.21327 639.784C9.21093 639.505 8.43419 633.503 7.48717 626.447C5.31321 610.275 5.14526 608.176 5.70741 604.119C6.53314 598.148 9.11997 594.166 12.8054 593.191C13.7175 592.949 14.9397 592.3 15.5252 591.747L16.5865 590.744L21.3566 591.591C47.4885 596.235 77.0678 592.816 96.4912 582.905C99.057 581.596 101.17 580.535 101.189 580.549C101.205 580.563 100.993 584.248 100.713 588.738ZM494.134 581.727L501.459 581.925L503.418 583.485C504.496 584.341 505.59 585.044 505.851 585.044C508.892 585.044 512.368 591.642 514.192 600.875C516.084 610.459 515.545 632.712 513.336 636.08L512.737 636.995L508.519 636.503C480.57 633.237 455.581 633.937 446.585 638.233C445.204 638.893 444.038 639.4 443.993 639.355C443.951 639.313 443.858 627.643 443.786 613.424L443.655 587.572L446.767 586.48C456.61 583.024 472.768 580.854 484.475 581.416C485.758 581.477 490.106 581.617 494.134 581.727Z" fill="#514C48"/>
<path fill-rule="evenodd" clip-rule="evenodd" d="M286.498 0.225607C286.874 0.323575 287.485 0.323575 287.861 0.225607C288.234 0.127639 287.928 0.0483398 287.179 0.0483398C286.431 0.0483398 286.125 0.127639 286.498 0.225607ZM292.724 0.237281C293.316 0.325919 294.191 0.323573 294.669 0.23027C295.147 0.139299 294.662 0.0646563 293.594 0.0693215C292.526 0.071654 292.134 0.146311 292.724 0.237281ZM343.847 76.4308C344.33 76.5218 345.03 76.5194 345.4 76.4215C345.774 76.3235 345.377 76.2488 344.521 76.2535C343.667 76.2582 343.362 76.3375 343.847 76.4308ZM324.986 78.7564C325.361 78.852 325.972 78.852 326.348 78.7564C326.721 78.6584 326.416 78.5768 325.667 78.5768C324.918 78.5768 324.613 78.6584 324.986 78.7564ZM305.938 79.1552C306.526 79.2439 307.487 79.2439 308.075 79.1552C308.662 79.0666 308.182 78.992 307.006 78.992C305.831 78.992 305.35 79.0666 305.938 79.1552ZM317.018 79.1576C317.713 79.2439 318.849 79.2439 319.544 79.1576C320.239 79.0713 319.67 79.0013 318.28 79.0013C316.889 79.0013 316.323 79.0713 317.018 79.1576ZM258.514 116.087C259.105 116.178 259.979 116.175 260.457 116.082C260.936 115.989 260.453 115.917 259.382 115.919C258.314 115.924 257.922 115.998 258.514 116.087ZM214.618 159.739C214.618 161.556 214.683 162.3 214.765 161.39C214.846 160.483 214.846 158.995 214.765 158.087C214.683 157.177 214.618 157.922 214.618 159.739ZM370.375 166.153C370.375 166.687 370.525 167.126 370.709 167.126C370.893 167.126 370.961 166.687 370.858 166.153C370.756 165.619 370.606 165.181 370.525 165.181C370.441 165.181 370.375 165.619 370.375 166.153ZM206.428 173.928C206.43 174.998 206.507 175.388 206.596 174.798C206.685 174.208 206.682 173.333 206.591 172.855C206.498 172.377 206.426 172.859 206.428 173.928ZM214.415 179.02C214.345 180.646 214.417 182.054 214.578 182.155C214.739 182.253 214.87 180.923 214.87 179.199C214.87 175.236 214.583 175.124 214.415 179.02ZM235.473 238.001C235.473 238.069 236.042 238.638 236.738 239.265L238.002 240.406L236.859 239.144C235.795 237.966 235.473 237.7 235.473 238.001ZM345.473 241.67L344.134 243.128L345.592 241.789C346.947 240.541 347.227 240.212 346.931 240.212C346.865 240.212 346.21 240.868 345.473 241.67ZM217.79 291.044C207.613 307.206 186.715 320.336 164.085 324.792C163.054 324.994 163.049 325.027 161.913 341.679C161.143 352.985 161.053 357.42 161.055 383.859C161.055 414.129 161.15 417.066 162.989 443.536C164.808 469.719 169.291 504.199 174.038 528.479C174.873 532.757 175.755 537.392 175.995 538.782C176.238 540.172 177.308 545.07 178.374 549.668C183.795 573.024 184.208 575.13 185.094 583.877C188.166 614.215 182.965 640.37 170.101 659.25C159.445 674.892 142.604 709.57 133.57 734.473C132.707 736.852 131.667 739.719 131.261 740.841C127.603 750.913 122.343 772.205 122.343 776.938V777.871H135.872H149.401L149.877 768.442C151.883 728.709 166.77 673.633 191.138 615.789C196.869 602.188 204.954 574.612 210.638 549.278C223.458 492.163 228.72 418.246 224.771 350.786C224.018 337.898 222.395 324.624 220.13 312.828C219.194 307.962 218.655 299.523 218.938 294.153C219.08 291.426 219.143 289.196 219.075 289.196C219.008 289.196 218.429 290.029 217.79 291.044ZM343.821 311.47C343.593 321.694 343.028 327.922 341.584 336.237C340.885 340.261 340.222 350.42 338.704 380.36C337.801 398.142 336.866 424.085 336.191 449.95C335.758 466.535 335.982 532.722 336.516 546.169C337.509 571.158 338.391 585.1 340.271 605.454C342.086 625.115 345.501 649.294 347.031 653.325L347.717 655.135L347.985 651.482C350.964 610.695 359.118 560.33 375.017 484.549C376.435 477.79 377.394 473.388 380.867 457.725C384.41 441.74 390.4 416.382 395.7 394.939C399.351 380.16 407.666 348.276 408.298 346.629C408.462 346.205 407.708 345.985 404.855 345.635C381.474 342.762 358.792 327.222 346.557 305.69L344.052 301.282L343.821 311.47ZM85.1925 311.064L84.0519 312.329L85.3138 311.186C86.0089 310.558 86.5781 309.989 86.5781 309.921C86.5781 309.623 86.2562 309.886 85.1925 311.064ZM241.319 319.921C241.312 320.248 242.081 323.966 243.031 328.185C243.98 332.405 244.874 336.625 245.013 337.562L245.27 339.267L249.889 341.437C252.429 342.629 254.992 343.72 255.585 343.863C256.177 344.003 256.837 344.252 257.05 344.413C257.836 345.01 266.364 347.513 271.159 348.553C283.695 351.273 304.454 349.251 315.753 344.21C316.395 343.923 317.531 343.499 318.28 343.268C319.609 342.853 319.705 342.678 322.329 335.944C323.805 332.148 325.184 328.827 325.389 328.559C326.094 327.64 324.988 328.052 321.993 329.823C313.967 334.567 304.417 338.185 295.927 339.699C274.791 343.466 255.053 336.503 242.574 320.88C241.858 319.984 241.326 319.578 241.319 319.921ZM246.422 344.11C246.814 345.873 247.236 347.928 247.36 348.677C247.481 349.426 247.997 352.136 248.503 354.702C249.681 360.673 253.38 380.386 253.609 381.916C253.707 382.558 254.292 385.968 254.915 389.497C256.012 395.713 259.13 413.775 259.382 415.349C259.45 415.778 259.613 416.896 259.746 417.836C259.881 418.776 260.59 423.238 261.328 427.749C262.638 435.799 265.675 455.038 265.997 457.335C266.641 461.935 267.789 469.565 267.961 470.412L268.171 471.438L269.998 470.871C272.293 470.157 275.491 470.428 277.285 471.485L278.619 472.273L278.859 471.219C278.992 470.64 279.596 468.154 280.203 465.695C280.809 463.234 281.395 460.788 281.507 460.251C282.943 453.326 291.53 423.681 296.596 408.158C297.886 404.202 299.25 399.917 299.626 398.634C301.287 392.963 313.556 358.644 318.525 345.761C318.816 345.01 318.793 345.006 317.871 345.649C299.747 358.336 275.887 359.465 256.387 348.56C253.546 346.972 248.139 343.051 246.98 341.74C245.762 340.361 245.671 340.744 246.422 344.11ZM335.429 364.511C334.96 366.171 334.503 367.881 334.409 368.31C334.314 368.737 332.919 373.547 331.309 379.001C329.698 384.454 328.303 389.264 328.212 389.691C328.118 390.12 326.91 394.319 325.529 399.021C321.2 413.751 316.257 430.819 315.732 432.843C315.17 435.013 309.852 453.277 308.373 458.114C307.851 459.824 307.165 462.185 306.85 463.363C306.535 464.538 305.653 467.585 304.893 470.132C304.13 472.679 303.507 474.792 303.507 474.83C303.507 474.865 304.688 474.823 306.132 474.732C313.342 474.279 322.422 477.151 328.097 481.673L329.555 482.837L329.567 480.971C329.574 479.945 329.656 477.183 329.749 474.83C329.84 472.478 330.012 466.006 330.134 460.447C330.253 454.886 330.516 446.664 330.717 442.174C330.917 437.683 331.186 431.474 331.314 428.374C331.657 419.949 331.811 417.668 333.656 393.386C334.598 380.983 335.433 371.539 336.166 365.028C336.635 360.855 336.483 360.75 335.429 364.511ZM228.254 369.367C228.359 369.736 228.555 372.273 228.69 375.005C228.825 377.736 229.066 382.509 229.224 385.609C230.416 408.976 229.856 451.364 228.1 470.554C227.713 474.781 227.396 474.475 230.925 473.29C234.083 472.229 238.391 471.968 240.894 472.686C241.627 472.896 242.261 473.027 242.303 472.978C242.366 472.903 239.149 447.396 238.419 442.174C238.298 441.32 238.104 439.745 237.985 438.675C237.869 437.606 237.171 432.272 236.437 426.818C235.702 421.365 235.014 416.205 234.904 415.349C234.797 414.495 234.165 409.858 233.505 405.048C231.946 393.733 232.016 394.251 231.788 392.219C231.09 386.033 228.744 370.12 228.436 369.477C228.217 369.015 228.142 368.973 228.254 369.367ZM506.919 530.228C506.919 530.977 507.001 531.283 507.099 530.909C507.195 530.536 507.195 529.923 507.099 529.549C507.001 529.174 506.919 529.48 506.919 530.228ZM507.344 541.891C507.344 543.281 507.414 543.851 507.5 543.155C507.587 542.46 507.587 541.324 507.5 540.629C507.414 539.934 507.344 540.501 507.344 541.891ZM507.344 576.493C507.344 577.88 507.414 578.45 507.5 577.754C507.587 577.059 507.587 575.923 507.5 575.228C507.414 574.533 507.344 575.102 507.344 576.493ZM499.945 579.865C500.757 580.201 501.538 580.358 501.685 580.213C502.105 579.791 500.911 579.224 499.637 579.238L498.471 579.254L499.945 579.865ZM97.1703 582.611C77.7656 592.823 46.1336 596.427 20.0228 591.402L16.5892 590.742L15.5256 591.748C14.9401 592.3 13.6782 592.961 12.7195 593.215C7.52951 594.589 4.63712 602.321 5.66112 612.09C5.88271 614.215 6.77376 621.189 7.63914 627.592C8.50453 633.993 9.21364 639.47 9.21364 639.761C9.21364 640.053 10.1327 640.697 11.2546 641.191C21.7466 645.817 41.5571 644.077 63.446 636.608C78.4421 631.49 97.6951 623.044 98.045 621.427C98.4252 619.68 101.423 580.74 101.192 580.544C101.173 580.528 99.3629 581.459 97.1703 582.611ZM475.341 581.587C464.31 582.028 456.179 583.378 447.933 586.14L443.655 587.572L443.786 613.424C443.921 640.256 443.907 639.838 444.717 639.178C450.644 634.347 473.624 633.125 503.871 636.029C514.71 637.069 514.029 637.489 514.979 629.169C517.271 609.055 512.207 585.044 505.672 585.044C505.406 585.044 504.361 584.351 503.348 583.504L501.508 581.965L493.575 581.743C489.213 581.62 484.942 581.47 484.088 581.41C483.232 581.349 479.295 581.428 475.341 581.587ZM519.749 624.31C519.749 625.057 519.83 625.365 519.928 624.989C520.024 624.616 520.024 624.002 519.928 623.629C519.83 623.256 519.749 623.562 519.749 624.31ZM443.961 641.609C443.966 642.679 444.04 643.069 444.129 642.479C444.22 641.889 444.218 641.014 444.124 640.536C444.031 640.057 443.959 640.54 443.961 641.609ZM23.1134 647.921C24.0208 648.002 25.509 648.002 26.4164 647.921C27.3261 647.839 26.582 647.771 24.7649 647.771C22.9478 647.771 22.2037 647.839 23.1134 647.921ZM444.376 655.8C444.376 657.617 444.441 658.361 444.523 657.451C444.605 656.542 444.605 655.056 444.523 654.146C444.441 653.239 444.376 653.981 444.376 655.8ZM444.745 668.24C444.745 669.415 444.817 669.896 444.906 669.308C444.997 668.72 444.997 667.759 444.906 667.171C444.817 666.584 444.745 667.064 444.745 668.24ZM509.649 668.046C509.653 668.9 509.733 669.205 509.826 668.72C509.919 668.237 509.917 667.538 509.819 667.167C509.721 666.793 509.646 667.19 509.649 668.046ZM445.106 678.736C445.106 679.485 445.188 679.791 445.286 679.417C445.382 679.042 445.382 678.431 445.286 678.055C445.188 677.682 445.106 677.987 445.106 678.736ZM445.496 687.29C445.496 688.039 445.575 688.344 445.673 687.969C445.771 687.595 445.771 686.982 445.673 686.609C445.575 686.235 445.496 686.541 445.496 687.29ZM309.451 771.067C309.453 772.137 309.528 772.527 309.619 771.937C309.707 771.346 309.705 770.472 309.612 769.993C309.521 769.515 309.446 769.998 309.451 771.067Z" fill="white"/>
<path fill-rule="evenodd" clip-rule="evenodd" d="M223.125 45.0529C223.125 45.8017 223.204 46.1072 223.302 45.734C223.4 45.3608 223.4 44.7473 223.302 44.3741C223.204 43.9986 223.125 44.3065 223.125 45.0529ZM239.835 65.6519C236.619 67.1121 235.378 71.306 236.654 76.4004C239.285 86.9063 235.301 99.7984 226.253 110.048C219.698 117.472 214.895 138.004 214.863 158.726C214.86 160.886 214.688 162.916 214.48 163.237C214.2 163.674 214.102 163.461 214.098 162.405C214.081 158.621 212.36 151.927 210.482 148.349C205.623 139.091 202.204 148.754 205.35 162.848C206.237 166.816 206.489 169.134 206.727 175.483C207.202 188.229 209.101 192.784 213.944 192.784H215.954L215.621 191.326C215.439 190.524 215.171 188.425 215.026 186.661L214.762 183.454H213.631C209.071 183.454 207.158 176.883 211.434 175.915C212.446 175.686 213.001 176.841 213.113 179.402C213.125 179.633 213.407 180.237 213.743 180.743C214.324 181.616 214.368 181.436 214.622 177.259C215.045 170.312 215.616 167.065 216.376 167.294C223.127 169.318 242.205 170.004 251.414 168.551C266.688 166.144 277.772 162.176 291.616 154.161C298.609 150.112 305.859 150.751 311.865 155.943C320.337 163.27 342.888 173.704 354.575 175.705C359.415 176.533 367.565 175.763 369.526 174.294C369.876 174.03 370.646 169.673 370.464 168.978C370.319 168.427 370.396 168.259 370.702 168.448C370.986 168.623 371.152 168.432 371.152 167.926C371.152 167.485 370.956 167.126 370.718 167.126C370.448 167.126 370.361 166.65 370.487 165.862C371.035 162.412 367.378 122.83 365.484 111.727C362.878 96.4372 356.592 78.0145 353.287 75.9712C352.837 75.6936 343.241 76.5007 339.469 77.1328C310.675 81.9682 271.679 77.5317 248.886 66.8275C244.423 64.7305 242.436 64.4739 239.835 65.6519ZM184.255 95.7864C184.259 96.6424 184.339 96.9457 184.432 96.4628C184.525 95.98 184.523 95.2802 184.425 94.907C184.327 94.5361 184.252 94.9327 184.255 95.7864ZM184.255 101.231C184.259 102.084 184.339 102.39 184.432 101.905C184.525 101.422 184.523 100.722 184.425 100.351C184.327 99.978 184.252 100.375 184.255 101.231ZM397.289 106.479C397.289 107.225 397.37 107.533 397.468 107.158C397.564 106.784 397.564 106.171 397.468 105.798C397.37 105.425 397.289 105.73 397.289 106.479ZM262.764 107.692C268.258 108.853 273.322 112.103 280.133 118.837C284.047 122.709 283.981 122.942 279.531 120.95C264.815 114.37 253.32 114.524 238.244 121.508C233.915 123.511 234.043 123.49 234.955 122.051C241.496 111.723 253.215 105.672 262.764 107.692ZM348.603 114.104C353.569 116.458 357.096 120.281 360.523 127.027C362.899 131.703 363.007 132.13 361.53 130.98C350.364 122.289 339.576 119.721 324.391 122.14C317.797 123.189 317.813 123.224 323.143 119.509C332.728 112.826 341.834 110.894 348.603 114.104ZM264.476 134.211C266.606 136.042 265.354 139.135 262.477 139.135C261.549 139.135 260.964 138.848 260.383 138.111C258.12 135.233 261.698 131.822 264.476 134.211ZM337.302 140.936C339.602 143.858 335.877 147.434 333.175 144.899C331.295 143.133 332.625 139.912 335.23 139.912C336.136 139.912 336.726 140.206 337.302 140.936ZM211.469 158.446C211.63 158.542 211.599 158.922 211.403 159.291C210.767 160.478 209.915 166.102 210.107 167.842C210.316 169.736 209.764 169.734 207.989 167.835C203.965 163.534 206.857 155.731 211.469 158.446ZM232.212 236.182C236.075 252.353 235.975 274.66 231.991 286.299L230.799 289.78L233.78 295.805C236.399 301.092 236.987 302.702 238.592 308.951C240.691 317.12 240.6 316.977 246.553 321.43C267.073 336.786 289.806 338.449 322.644 326.998L326.812 325.545L327.771 323.408C329.763 318.974 332.21 312.165 333.444 307.617L334.722 302.905L333.714 299.257C333.159 297.253 332.499 294.211 332.247 292.502C330.649 281.669 319.25 265.971 309.908 261.742C307.307 260.564 307.345 260.566 295.343 261C290.786 261.166 286.832 261.122 285.43 260.891C284.147 260.681 283.048 260.634 282.99 260.788C282.932 260.942 281.007 260.746 278.715 260.349C261.388 257.361 247.516 250.116 235.417 237.735L231.667 233.898L232.212 236.182ZM363.571 269.759C365.272 271.469 366.751 272.868 366.858 272.868C366.965 272.868 365.661 271.469 363.961 269.759C362.26 268.047 360.781 266.647 360.674 266.647C360.567 266.647 361.871 268.047 363.571 269.759ZM506.532 519.732C506.532 520.48 506.612 520.786 506.71 520.413C506.808 520.039 506.808 519.426 506.71 519.053C506.612 518.677 506.532 518.983 506.532 519.732ZM506.919 527.896C506.919 528.644 507.001 528.95 507.099 528.577C507.195 528.203 507.195 527.59 507.099 527.217C507.001 526.841 506.919 527.147 506.919 527.896ZM13.2 556.47C13.2047 557.326 13.284 557.629 13.3773 557.146C13.4706 556.663 13.4659 555.963 13.3703 555.59C13.2723 555.219 13.1954 555.616 13.2 556.47ZM0 608.759C0 609.935 0.0746416 610.415 0.163279 609.827C0.251917 609.239 0.251917 608.278 0.163279 607.691C0.0746416 607.103 0 607.583 0 608.759ZM93.5758 625.134C66.9728 640.23 36.9619 649.472 20.1977 647.734C18.432 647.552 16.9905 647.431 16.9905 647.466C16.9905 647.503 17.4173 649.803 17.9421 652.581C21.3524 670.679 25.3201 697.306 32.3574 749.296C33.1085 754.855 34.2888 763.516 34.9793 768.54L36.2342 777.677L55.8745 777.777L75.5171 777.877L76.59 768.057C78.5377 750.218 82.7784 721.511 85.9926 704.394C88.7381 689.783 91.5395 673.192 92.7898 664.113C93.4126 659.6 94.019 655.49 94.1357 654.979C94.4599 653.561 97.8911 623.454 97.7675 623.114C97.7068 622.95 95.8198 623.86 93.5758 625.134ZM458.04 636.731C453.872 637.228 447.252 638.562 445.664 639.225L444.239 639.819L444.241 643.824C444.246 654.053 445.75 692.9 446.776 709.253C447.756 724.886 449.793 751.286 450.273 754.545C450.383 755.294 450.905 760.192 451.435 765.431C451.966 770.667 452.503 775.613 452.631 776.415L452.862 777.877L473.715 777.777L494.571 777.677L495.042 773.182C495.301 770.709 496.052 762.837 496.712 755.688C497.37 748.538 498.165 740.239 498.48 737.244C498.795 734.251 499.32 728.742 499.647 724.998C501.45 704.362 506.224 661.107 508.184 647.671C508.725 643.948 509.093 640.83 509.002 640.736C508.438 640.172 497.871 638.767 484.912 637.534C475.698 636.656 462.094 636.251 458.04 636.731ZM15.9221 652.884C15.9268 653.738 16.0061 654.043 16.0994 653.558C16.1904 653.075 16.188 652.376 16.0901 652.005C15.9921 651.632 15.9175 652.028 15.9221 652.884ZM16.3093 661.048C16.314 661.902 16.3933 662.207 16.4866 661.722C16.5799 661.239 16.5776 660.54 16.4796 660.169C16.3817 659.796 16.307 660.192 16.3093 661.048ZM509.663 671.155C509.665 672.224 509.742 672.615 509.831 672.025C509.919 671.433 509.917 670.558 509.826 670.08C509.733 669.602 509.66 670.087 509.663 671.155ZM509.273 680.875C509.278 681.943 509.352 682.335 509.441 681.743C509.532 681.153 509.53 680.278 509.436 679.8C509.343 679.322 509.271 679.804 509.273 680.875ZM264.339 739.651C264.714 739.749 265.326 739.749 265.701 739.651C266.074 739.553 265.769 739.474 265.02 739.474C264.271 739.474 263.966 739.553 264.339 739.651ZM300.578 742.439C300.811 742.84 300.666 742.91 299.96 742.733C299.451 742.604 299.258 742.602 299.526 742.723C299.794 742.847 299.957 743.064 299.887 743.206C299.82 743.348 300.146 743.864 300.615 744.349C301.445 745.21 301.473 745.212 301.669 744.459C301.791 743.999 301.693 743.719 301.427 743.771C301.182 743.815 300.979 743.561 300.977 743.201C300.972 742.842 300.813 742.404 300.622 742.229C300.419 742.045 300.4 742.131 300.578 742.439Z" fill="white"/>
<path fill-rule="evenodd" clip-rule="evenodd" d="M259.868 55.9715C255.851 56.9185 252.038 60.1725 249.836 64.539L248.716 66.755L253.467 68.4951C281.143 78.6395 311.483 81.6391 339.134 76.9623L343.355 76.2486L339.745 76.2019C335.075 76.1413 329.959 75.5838 322.945 74.3708C319.845 73.8343 316.913 73.3282 316.431 73.2442C315.948 73.1626 315.248 73.0016 314.877 72.8897C314.504 72.7777 313.762 72.6027 313.228 72.5024C304.782 70.9 282.443 63.2118 273.161 58.7123C267.353 55.8969 263.532 55.1084 259.868 55.9715ZM253.747 107.846C249.815 108.809 246.241 110.729 242.364 113.962C239.768 116.126 239.092 117.514 241.548 115.639C249.57 109.513 262.096 108.191 271.188 112.508C274.549 114.106 275.011 114.081 272.697 112.424C266.763 108.182 259.516 106.43 253.747 107.846ZM335.775 113.297C333.269 113.987 327.009 116.88 326.379 117.638C326.09 117.985 326.519 117.915 327.664 117.423C337.051 113.402 349.026 115.317 356.08 121.972C359.112 124.834 359.429 124.64 357.034 121.389C351.771 114.239 343.619 111.137 335.775 113.297ZM188.92 134.274C188.925 135.13 189.004 135.433 189.098 134.95C189.191 134.467 189.189 133.767 189.091 133.394C188.993 133.023 188.918 133.42 188.92 134.274ZM209.972 158.635C209.641 159.172 209.473 163.585 209.755 164.376C209.865 164.683 210.168 163.895 210.429 162.626C210.693 161.36 211.031 159.841 211.18 159.253C211.469 158.129 210.569 157.669 209.972 158.635ZM211.525 176.225C211.411 176.526 211.686 177.445 212.141 178.266L212.967 179.759L212.752 178.448C212.633 177.725 212.538 176.808 212.538 176.407C212.538 175.556 211.831 175.427 211.525 176.225ZM335.191 249.983C329.582 253.806 321.033 257.387 313.515 259.059C309.675 259.913 309.323 259.974 308.075 260.009C306.433 260.055 306.799 260.562 309.048 261.352C316.641 264.023 327.844 277.265 330.902 287.186C331.431 288.9 331.581 287.666 331.595 281.461C331.616 270.972 333.981 258.915 337.76 250.039C338.704 247.826 338.371 247.819 335.191 249.983ZM225.854 383.472C225.859 384.326 225.938 384.631 226.032 384.146C226.123 383.663 226.12 382.963 226.022 382.592C225.924 382.219 225.85 382.616 225.854 383.472ZM335.866 523.62C335.866 524.369 335.945 524.674 336.043 524.301C336.141 523.925 336.141 523.314 336.043 522.939C335.945 522.566 335.866 522.871 335.866 523.62Z" fill="#D8D8D8"/>
</svg>
